<svg width="21" height="20" viewBox="0 0 21 20" fill="none" xmlns="http://www.w3.org/2000/svg">
<path d="M15.2153 6.66665H14.3819V4.99998C14.3819 2.69998 12.5153 0.833313 10.2153 0.833313C7.91525 0.833313 6.04858 2.69998 6.04858 4.99998V6.66665H5.21525C4.29858 6.66665 3.54858 7.41665 3.54858 8.33331V16.6666C3.54858 17.5833 4.29858 18.3333 5.21525 18.3333H15.2153C16.1319 18.3333 16.8819 17.5833 16.8819 16.6666V8.33331C16.8819 7.41665 16.1319 6.66665 15.2153 6.66665ZM10.2153 14.1666C9.29858 14.1666 8.54858 13.4166 8.54858 12.5C8.54858 11.5833 9.29858 10.8333 10.2153 10.8333C11.1319 10.8333 11.8819 11.5833 11.8819 12.5C11.8819 13.4166 11.1319 14.1666 10.2153 14.1666ZM12.7986 6.66665H7.63192V4.99998C7.63192 3.57498 8.79025 2.41665 10.2153 2.41665C11.6403 2.41665 12.7986 3.57498 12.7986 4.99998V6.66665Z" fill="#A5B0C1"/>
</svg>
