<svg width="20" height="20" viewBox="0 0 20 20" fill="none" xmlns="http://www.w3.org/2000/svg">
<g clip-path="url(#clip0_10902_435)">
<path d="M14.1668 17.5001V15.8334C14.1668 14.9494 13.8156 14.1015 13.1905 13.4764C12.5654 12.8513 11.7176 12.5001 10.8335 12.5001H4.16683C3.28277 12.5001 2.43493 12.8513 1.80981 13.4764C1.18469 14.1015 0.833496 14.9494 0.833496 15.8334V17.5001" stroke="#FAFAFA" stroke-width="2" stroke-linecap="round" stroke-linejoin="round"/>
<path d="M7.49984 9.16674C9.34079 9.16674 10.8332 7.67436 10.8332 5.83341C10.8332 3.99246 9.34079 2.50008 7.49984 2.50008C5.65889 2.50008 4.1665 3.99246 4.1665 5.83341C4.1665 7.67436 5.65889 9.16674 7.49984 9.16674Z" stroke="#FAFAFA" stroke-width="2" stroke-linecap="round" stroke-linejoin="round"/>
<path d="M19.1665 17.5001V15.8334C19.166 15.0949 18.9201 14.3774 18.4676 13.7937C18.0152 13.21 17.3816 12.7931 16.6665 12.6084" stroke="#FAFAFA" stroke-width="2" stroke-linecap="round" stroke-linejoin="round"/>
<path d="M13.3335 2.60841C14.0505 2.792 14.686 3.209 15.1399 3.79367C15.5937 4.37835 15.84 5.09744 15.84 5.83758C15.84 6.57772 15.5937 7.29681 15.1399 7.88149C14.686 8.46616 14.0505 8.88316 13.3335 9.06675" stroke="#FAFAFA" stroke-width="2" stroke-linecap="round" stroke-linejoin="round"/>
</g>
<defs>
<clipPath id="clip0_10902_435">
<rect width="20" height="20" fill="white"/>
</clipPath>
</defs>
</svg>
